<mxfile host="app.diagrams.net" agent="Mozilla/5.0 (Windows NT 10.0; Win64; x64) AppleWebKit/537.36 (KHTML, like Gecko) Chrome/129.0.0.0 Safari/537.36 Edg/129.0.0.0" version="24.7.17">
  <diagram name="Page-1" id="58cdce13-f638-feb5-8d6f-7d28b1aa9fa0">
    <mxGraphModel dx="1213" dy="1513" grid="1" gridSize="10" guides="1" tooltips="1" connect="1" arrows="1" fold="1" page="1" pageScale="1" pageWidth="1100" pageHeight="850" background="none" math="0" shadow="0">
      <root>
        <mxCell id="0" />
        <mxCell id="1" parent="0" />
        <mxCell id="khgSbVMLil51bQNxHi0z-4" value="" style="edgeStyle=orthogonalEdgeStyle;rounded=0;orthogonalLoop=1;jettySize=auto;html=1;" parent="1" source="382b91b5511bd0f7-1" target="382b91b5511bd0f7-6" edge="1">
          <mxGeometry relative="1" as="geometry" />
        </mxCell>
        <mxCell id="382b91b5511bd0f7-1" value="" style="ellipse;html=1;shape=startState;fillColor=#FFFFFF;strokeColor=#050000;rounded=1;shadow=0;comic=0;labelBackgroundColor=none;fontFamily=Verdana;fontSize=12;fontColor=#000000;align=center;direction=south;" parent="1" vertex="1">
          <mxGeometry x="100" y="135" width="30" height="30" as="geometry" />
        </mxCell>
        <mxCell id="382b91b5511bd0f7-6" value="StandBy" style="rounded=1;whiteSpace=wrap;html=1;arcSize=24;fillColor=#ffffc0;strokeColor=#000000;shadow=0;comic=0;labelBackgroundColor=none;fontFamily=Verdana;fontSize=12;fontColor=#000000;align=center;" parent="1" vertex="1">
          <mxGeometry x="240" y="120" width="120" height="60" as="geometry" />
        </mxCell>
        <mxCell id="382b91b5511bd0f7-7" value="DisplayDashboard" style="rounded=1;whiteSpace=wrap;html=1;arcSize=24;fillColor=#ffffc0;strokeColor=#030000;shadow=0;comic=0;labelBackgroundColor=none;fontFamily=Verdana;fontSize=12;fontColor=#000000;align=center;" parent="1" vertex="1">
          <mxGeometry x="460" y="120" width="140" height="60" as="geometry" />
        </mxCell>
        <mxCell id="2a3bc250acf0617d-9" style="edgeStyle=orthogonalEdgeStyle;html=1;labelBackgroundColor=none;endArrow=open;endSize=8;strokeColor=#030000;fontFamily=Verdana;fontSize=12;align=left;" parent="1" source="382b91b5511bd0f7-1" target="382b91b5511bd0f7-6" edge="1">
          <mxGeometry relative="1" as="geometry" />
        </mxCell>
        <mxCell id="khgSbVMLil51bQNxHi0z-3" value="Patient opens&lt;br&gt;&amp;nbsp;application" style="edgeLabel;html=1;align=center;verticalAlign=middle;resizable=0;points=[];" parent="2a3bc250acf0617d-9" vertex="1" connectable="0">
          <mxGeometry x="-0.2583" y="-1" relative="1" as="geometry">
            <mxPoint y="-21" as="offset" />
          </mxGeometry>
        </mxCell>
        <mxCell id="khgSbVMLil51bQNxHi0z-1" value="" style="endArrow=classic;html=1;rounded=0;exitX=1;exitY=0.5;exitDx=0;exitDy=0;entryX=0;entryY=0.5;entryDx=0;entryDy=0;" parent="1" source="382b91b5511bd0f7-6" target="382b91b5511bd0f7-7" edge="1">
          <mxGeometry width="50" height="50" relative="1" as="geometry">
            <mxPoint x="520" y="270" as="sourcePoint" />
            <mxPoint x="570" y="220" as="targetPoint" />
          </mxGeometry>
        </mxCell>
        <mxCell id="khgSbVMLil51bQNxHi0z-5" value="Display main&lt;br&gt;page" style="edgeLabel;html=1;align=center;verticalAlign=middle;resizable=0;points=[];" parent="khgSbVMLil51bQNxHi0z-1" vertex="1" connectable="0">
          <mxGeometry x="-0.2467" y="1" relative="1" as="geometry">
            <mxPoint x="12" y="-14" as="offset" />
          </mxGeometry>
        </mxCell>
        <mxCell id="khgSbVMLil51bQNxHi0z-6" value="" style="endArrow=classic;html=1;rounded=0;entryX=0;entryY=0.5;entryDx=0;entryDy=0;" parent="1" target="khgSbVMLil51bQNxHi0z-8" edge="1">
          <mxGeometry width="50" height="50" relative="1" as="geometry">
            <mxPoint x="600" y="150" as="sourcePoint" />
            <mxPoint x="700" y="150" as="targetPoint" />
          </mxGeometry>
        </mxCell>
        <mxCell id="khgSbVMLil51bQNxHi0z-8" value="Check Action" style="rhombus;whiteSpace=wrap;html=1;" parent="1" vertex="1">
          <mxGeometry x="680" y="110" width="90" height="80" as="geometry" />
        </mxCell>
        <mxCell id="shUVQg2UjGjNlmGBmeMp-3" value="" style="endArrow=classic;html=1;rounded=0;exitX=1;exitY=0.5;exitDx=0;exitDy=0;" parent="1" source="khgSbVMLil51bQNxHi0z-8" edge="1" target="YRQ_vVGaFmczx08vMhQU-2">
          <mxGeometry width="50" height="50" relative="1" as="geometry">
            <mxPoint x="810" y="149.5" as="sourcePoint" />
            <mxPoint x="940" y="150" as="targetPoint" />
          </mxGeometry>
        </mxCell>
        <mxCell id="shUVQg2UjGjNlmGBmeMp-4" value="Check Assessment Results" style="edgeLabel;html=1;align=center;verticalAlign=middle;resizable=0;points=[];" parent="shUVQg2UjGjNlmGBmeMp-3" vertex="1" connectable="0">
          <mxGeometry x="0.1285" y="1" relative="1" as="geometry">
            <mxPoint x="-26" y="-14" as="offset" />
          </mxGeometry>
        </mxCell>
        <mxCell id="shUVQg2UjGjNlmGBmeMp-5" value="" style="endArrow=classic;html=1;rounded=0;exitX=0.5;exitY=0;exitDx=0;exitDy=0;entryX=0.5;entryY=1;entryDx=0;entryDy=0;" parent="1" source="khgSbVMLil51bQNxHi0z-8" edge="1" target="YRQ_vVGaFmczx08vMhQU-3">
          <mxGeometry width="50" height="50" relative="1" as="geometry">
            <mxPoint x="520" y="20" as="sourcePoint" />
            <mxPoint x="725" y="-10" as="targetPoint" />
          </mxGeometry>
        </mxCell>
        <mxCell id="YRQ_vVGaFmczx08vMhQU-1" value="Perform Virtual Triage" style="edgeLabel;html=1;align=center;verticalAlign=middle;resizable=0;points=[];" vertex="1" connectable="0" parent="1">
          <mxGeometry x="652" y="50" as="geometry">
            <mxPoint x="10" y="20" as="offset" />
          </mxGeometry>
        </mxCell>
        <mxCell id="YRQ_vVGaFmczx08vMhQU-2" value="DisplayAssessmentResults" style="rounded=1;whiteSpace=wrap;html=1;arcSize=24;fillColor=#ffffc0;strokeColor=#030000;shadow=0;comic=0;labelBackgroundColor=none;fontFamily=Verdana;fontSize=12;fontColor=#000000;align=center;" vertex="1" parent="1">
          <mxGeometry x="1030" y="120" width="180" height="60" as="geometry" />
        </mxCell>
        <mxCell id="YRQ_vVGaFmczx08vMhQU-3" value="DisplayVirtualTriagePortal" style="rounded=1;whiteSpace=wrap;html=1;arcSize=24;fillColor=#ffffc0;strokeColor=#030000;shadow=0;comic=0;labelBackgroundColor=none;fontFamily=Verdana;fontSize=12;fontColor=#000000;align=center;" vertex="1" parent="1">
          <mxGeometry x="630" y="-40" width="190" height="60" as="geometry" />
        </mxCell>
        <mxCell id="YRQ_vVGaFmczx08vMhQU-5" value="" style="endArrow=classic;html=1;rounded=0;entryX=0.5;entryY=1;entryDx=0;entryDy=0;exitX=0.5;exitY=0;exitDx=0;exitDy=0;" edge="1" parent="1" source="YRQ_vVGaFmczx08vMhQU-3" target="YRQ_vVGaFmczx08vMhQU-6">
          <mxGeometry width="50" height="50" relative="1" as="geometry">
            <mxPoint x="720" y="-50" as="sourcePoint" />
            <mxPoint x="700" y="-140" as="targetPoint" />
          </mxGeometry>
        </mxCell>
        <mxCell id="YRQ_vVGaFmczx08vMhQU-6" value="Patient Answers&lt;br&gt;Questions" style="rhombus;whiteSpace=wrap;html=1;" vertex="1" parent="1">
          <mxGeometry x="663" y="-199" width="120" height="87" as="geometry" />
        </mxCell>
        <mxCell id="YRQ_vVGaFmczx08vMhQU-7" value="" style="endArrow=classic;html=1;rounded=0;exitX=0.5;exitY=0;exitDx=0;exitDy=0;" edge="1" parent="1" source="YRQ_vVGaFmczx08vMhQU-6">
          <mxGeometry width="50" height="50" relative="1" as="geometry">
            <mxPoint x="520" y="-30" as="sourcePoint" />
            <mxPoint x="721" y="-312" as="targetPoint" />
          </mxGeometry>
        </mxCell>
        <mxCell id="YRQ_vVGaFmczx08vMhQU-8" value="All Questions are Answered" style="edgeLabel;html=1;align=center;verticalAlign=middle;resizable=0;points=[];" vertex="1" connectable="0" parent="YRQ_vVGaFmczx08vMhQU-7">
          <mxGeometry x="0.2407" y="3" relative="1" as="geometry">
            <mxPoint x="1" y="12" as="offset" />
          </mxGeometry>
        </mxCell>
        <mxCell id="YRQ_vVGaFmczx08vMhQU-9" value="ProcessingAnswers" style="rounded=1;whiteSpace=wrap;html=1;arcSize=24;fillColor=#ffffc0;strokeColor=#030000;shadow=0;comic=0;labelBackgroundColor=none;fontFamily=Verdana;fontSize=12;fontColor=#000000;align=center;" vertex="1" parent="1">
          <mxGeometry x="628" y="-370" width="190" height="60" as="geometry" />
        </mxCell>
        <mxCell id="YRQ_vVGaFmczx08vMhQU-10" value="DisplayingSuggestions" style="rounded=1;whiteSpace=wrap;html=1;arcSize=24;fillColor=#ffffc0;strokeColor=#030000;shadow=0;comic=0;labelBackgroundColor=none;fontFamily=Verdana;fontSize=12;fontColor=#000000;align=center;" vertex="1" parent="1">
          <mxGeometry x="950" y="-370" width="190" height="60" as="geometry" />
        </mxCell>
        <mxCell id="YRQ_vVGaFmczx08vMhQU-11" value="" style="endArrow=classic;html=1;rounded=0;exitX=1;exitY=0.5;exitDx=0;exitDy=0;entryX=0;entryY=0.5;entryDx=0;entryDy=0;" edge="1" parent="1" source="YRQ_vVGaFmczx08vMhQU-9" target="YRQ_vVGaFmczx08vMhQU-10">
          <mxGeometry width="50" height="50" relative="1" as="geometry">
            <mxPoint x="520" y="-130" as="sourcePoint" />
            <mxPoint x="570" y="-180" as="targetPoint" />
          </mxGeometry>
        </mxCell>
        <mxCell id="YRQ_vVGaFmczx08vMhQU-12" value="Display Result" style="edgeLabel;html=1;align=center;verticalAlign=middle;resizable=0;points=[];" vertex="1" connectable="0" parent="YRQ_vVGaFmczx08vMhQU-11">
          <mxGeometry x="0.2568" y="-2" relative="1" as="geometry">
            <mxPoint x="-15" y="-12" as="offset" />
          </mxGeometry>
        </mxCell>
        <mxCell id="YRQ_vVGaFmczx08vMhQU-13" value="Choose Action" style="rhombus;whiteSpace=wrap;html=1;" vertex="1" parent="1">
          <mxGeometry x="1220" y="-380" width="110" height="100" as="geometry" />
        </mxCell>
        <mxCell id="YRQ_vVGaFmczx08vMhQU-14" value="" style="endArrow=classic;html=1;rounded=0;entryX=0;entryY=0.5;entryDx=0;entryDy=0;" edge="1" parent="1" target="YRQ_vVGaFmczx08vMhQU-13">
          <mxGeometry width="50" height="50" relative="1" as="geometry">
            <mxPoint x="1136" y="-330" as="sourcePoint" />
            <mxPoint x="1000" y="-180" as="targetPoint" />
          </mxGeometry>
        </mxCell>
        <mxCell id="YRQ_vVGaFmczx08vMhQU-17" value="" style="shape=mxgraph.sysml.actFinal;html=1;verticalLabelPosition=bottom;labelBackgroundColor=#ffffff;verticalAlign=top;" vertex="1" parent="1">
          <mxGeometry x="1255" y="-620" width="40" height="40" as="geometry" />
        </mxCell>
        <mxCell id="YRQ_vVGaFmczx08vMhQU-18" value="" style="endArrow=classic;html=1;rounded=0;exitX=1;exitY=0.5;exitDx=0;exitDy=0;" edge="1" parent="1" source="YRQ_vVGaFmczx08vMhQU-13" target="YRQ_vVGaFmczx08vMhQU-20">
          <mxGeometry width="50" height="50" relative="1" as="geometry">
            <mxPoint x="1380" y="-230" as="sourcePoint" />
            <mxPoint x="1295" y="-210" as="targetPoint" />
          </mxGeometry>
        </mxCell>
        <mxCell id="YRQ_vVGaFmczx08vMhQU-19" value="Patient Needs Further Help" style="edgeLabel;html=1;align=center;verticalAlign=middle;resizable=0;points=[];" vertex="1" connectable="0" parent="YRQ_vVGaFmczx08vMhQU-18">
          <mxGeometry x="-0.0286" relative="1" as="geometry">
            <mxPoint y="-10" as="offset" />
          </mxGeometry>
        </mxCell>
        <mxCell id="YRQ_vVGaFmczx08vMhQU-20" value="DisplayingBookAppointmentPortal" style="rounded=1;whiteSpace=wrap;html=1;arcSize=24;fillColor=#ffffc0;strokeColor=#030000;shadow=0;comic=0;labelBackgroundColor=none;fontFamily=Verdana;fontSize=12;fontColor=#000000;align=center;" vertex="1" parent="1">
          <mxGeometry x="1533" y="-360" width="235" height="60" as="geometry" />
        </mxCell>
        <mxCell id="YRQ_vVGaFmczx08vMhQU-22" value="" style="endArrow=classic;html=1;rounded=0;exitX=0.5;exitY=0;exitDx=0;exitDy=0;entryX=0.5;entryY=1;entryDx=0;entryDy=0;entryPerimeter=0;" edge="1" parent="1" source="YRQ_vVGaFmczx08vMhQU-13" target="YRQ_vVGaFmczx08vMhQU-17">
          <mxGeometry width="50" height="50" relative="1" as="geometry">
            <mxPoint x="1230" y="-130" as="sourcePoint" />
            <mxPoint x="1280" y="-140" as="targetPoint" />
          </mxGeometry>
        </mxCell>
        <mxCell id="YRQ_vVGaFmczx08vMhQU-23" value="Patient Notes Suggestions and Exits Application" style="edgeLabel;html=1;align=center;verticalAlign=middle;resizable=0;points=[];" vertex="1" connectable="0" parent="YRQ_vVGaFmczx08vMhQU-22">
          <mxGeometry x="-0.2222" relative="1" as="geometry">
            <mxPoint as="offset" />
          </mxGeometry>
        </mxCell>
        <mxCell id="YRQ_vVGaFmczx08vMhQU-25" value="" style="endArrow=classic;html=1;rounded=0;entryX=0;entryY=1;entryDx=0;entryDy=0;exitX=0.5;exitY=0;exitDx=0;exitDy=0;" edge="1" parent="1" source="YRQ_vVGaFmczx08vMhQU-2" target="YRQ_vVGaFmczx08vMhQU-13">
          <mxGeometry width="50" height="50" relative="1" as="geometry">
            <mxPoint x="1030" y="110" as="sourcePoint" />
            <mxPoint x="1280" y="-80" as="targetPoint" />
            <Array as="points">
              <mxPoint x="1120" y="-220" />
            </Array>
          </mxGeometry>
        </mxCell>
        <mxCell id="YRQ_vVGaFmczx08vMhQU-27" value="Waiting for Patient&#39;s Choice" style="edgeLabel;html=1;align=center;verticalAlign=middle;resizable=0;points=[];" vertex="1" connectable="0" parent="YRQ_vVGaFmczx08vMhQU-25">
          <mxGeometry x="-0.3198" y="-5" relative="1" as="geometry">
            <mxPoint as="offset" />
          </mxGeometry>
        </mxCell>
        <mxCell id="YRQ_vVGaFmczx08vMhQU-28" value="" style="endArrow=classic;html=1;rounded=0;exitX=0;exitY=0.5;exitDx=0;exitDy=0;entryX=1;entryY=0.5;entryDx=0;entryDy=0;" edge="1" parent="1" source="YRQ_vVGaFmczx08vMhQU-6" target="YRQ_vVGaFmczx08vMhQU-29">
          <mxGeometry width="50" height="50" relative="1" as="geometry">
            <mxPoint x="790" y="-230" as="sourcePoint" />
            <mxPoint x="440" y="-155" as="targetPoint" />
            <Array as="points" />
          </mxGeometry>
        </mxCell>
        <mxCell id="YRQ_vVGaFmczx08vMhQU-30" value="Wrong/Incomplete Answers" style="edgeLabel;html=1;align=center;verticalAlign=middle;resizable=0;points=[];" vertex="1" connectable="0" parent="YRQ_vVGaFmczx08vMhQU-28">
          <mxGeometry x="-0.0266" y="2" relative="1" as="geometry">
            <mxPoint y="-16" as="offset" />
          </mxGeometry>
        </mxCell>
        <mxCell id="YRQ_vVGaFmczx08vMhQU-29" value="NotifyUserToRetakeTest" style="rounded=1;whiteSpace=wrap;html=1;arcSize=24;fillColor=#ffffc0;strokeColor=#030000;shadow=0;comic=0;labelBackgroundColor=none;fontFamily=Verdana;fontSize=12;fontColor=#000000;align=center;" vertex="1" parent="1">
          <mxGeometry x="310" y="-185.5" width="190" height="60" as="geometry" />
        </mxCell>
      </root>
    </mxGraphModel>
  </diagram>
</mxfile>
